<?xml version="1.0" encoding="UTF-8" standalone="no"?>
<svg width="121px" height="20px" viewBox="0 0 121 20" version="1.1" xmlns="http://www.w3.org/2000/svg" xmlns:xlink="http://www.w3.org/1999/xlink" xmlns:sketch="http://www.bohemiancoding.com/sketch/ns">
    <!-- Generator: Sketch 3.3.1 (12005) - http://www.bohemiancoding.com/sketch -->
    <title>deploy_to_heroku_s</title>
    <desc>Created with Sketch.</desc>
    <defs></defs>
    <g id="Page-1" stroke="none" stroke-width="1" fill="none" fill-rule="evenodd" sketch:type="MSPage">
        <g id="Deploy-to-Heroku---S" sketch:type="MSArtboardGroup">
            <g sketch:type="MSLayerGroup" transform="translate(0.000000, -1.000000)">
                <path d="M118.375,0.972 C119.756,0.972 120.875,2.091 120.875,3.472 L120.875,18.472 C120.875,19.853 119.756,20.972 118.375,20.972 L2.5,20.972 C1.119,20.972 0,19.853 0,18.472 L0,3.472 C0,2.091 1.119,0.972 2.5,0.972 L118.375,0.972 Z" id="Background" fill="#7056BF" sketch:type="MSShapeGroup"></path>
                <g id="Icon" transform="translate(7.000000, 4.700000)" fill="#FFFFFF" sketch:type="MSShapeGroup">
                    <path d="M12.793,2.964 L8.004,0.479 C7.469,0.201 6.691,0.202 6.157,0.479 L1.367,2.964 C0.793,3.262 0.378,3.927 0.378,4.544 L0.378,9.515 C0.378,10.134 0.794,10.797 1.367,11.095 L3.762,12.337 C4.172,12.548 4.679,12.39 4.892,11.98 C5.105,11.569 4.945,11.064 4.534,10.85 L2.142,9.609 C2.11,9.589 2.06,9.518 2.053,9.515 L2.05,4.579 C2.06,4.541 2.11,4.47 2.14,4.451 L6.926,1.967 C6.994,1.938 7.169,1.939 7.232,1.966 L12.018,4.45 C12.05,4.47 12.1,4.541 12.107,4.544 L12.109,9.481 C12.1,9.518 12.05,9.589 12.021,9.608 L9.626,10.85 C9.215,11.064 9.056,11.569 9.268,11.98 C9.417,12.267 9.711,12.432 10.013,12.432 C10.143,12.432 10.275,12.402 10.398,12.337 L12.792,11.095 C13.366,10.797 13.782,10.134 13.782,9.515 L13.782,4.544 C13.782,3.927 13.367,3.262 12.793,2.964" id="Fill-2"></path>
                    <path d="M10.186,8.402 C10.513,8.075 10.513,7.545 10.186,7.218 L7.673,4.705 C7.596,4.627 7.503,4.566 7.4,4.523 C7.196,4.439 6.964,4.439 6.76,4.523 C6.657,4.566 6.565,4.627 6.487,4.705 L3.974,7.218 C3.647,7.545 3.647,8.075 3.974,8.402 C4.138,8.566 4.352,8.648 4.567,8.648 C4.781,8.648 4.996,8.566 5.159,8.402 L6.242,7.319 L6.242,12.837 C6.242,13.3 6.617,13.674 7.08,13.674 C7.543,13.674 7.918,13.3 7.918,12.837 L7.918,7.319 L9.001,8.402 C9.164,8.566 9.379,8.648 9.593,8.648 C9.808,8.648 10.022,8.566 10.186,8.402" id="Fill-3"></path>
                </g>
                <path d="M67.189,15.237 C67.484,15.237 67.843,15.205 68.006,15.172 L68.006,14.399 C67.854,14.442 67.625,14.475 67.418,14.475 C66.721,14.475 66.525,14.17 66.525,13.56 L66.525,10.184 L68.017,10.184 L68.017,9.41 L66.525,9.41 L66.525,7.363 L65.588,7.363 L65.588,9.41 L64.586,9.41 L64.586,10.184 L65.588,10.184 L65.588,13.767 C65.588,14.769 65.98,15.237 67.189,15.237 L67.189,15.237 Z M71.633,15.281 C73.038,15.281 74.301,14.257 74.301,12.286 C74.301,10.304 73.038,9.291 71.633,9.291 C70.217,9.291 68.954,10.304 68.954,12.286 C68.954,14.257 70.228,15.281 71.633,15.281 L71.633,15.281 Z M71.633,14.486 C70.468,14.486 69.901,13.505 69.901,12.286 C69.901,10.99 70.533,10.097 71.633,10.097 C72.777,10.097 73.354,11.088 73.354,12.286 C73.354,13.604 72.722,14.486 71.633,14.486 L71.633,14.486 Z M78.342,15.161 L79.3,15.161 L79.3,11.36 L83.45,11.36 L83.45,15.161 L84.408,15.161 L84.408,7.102 L83.45,7.102 L83.45,10.478 L79.3,10.478 L79.3,7.102 L78.342,7.102 L78.342,15.161 L78.342,15.161 Z M88.503,15.281 C89.582,15.281 90.311,14.823 90.845,14.061 L90.3,13.582 C89.865,14.181 89.396,14.518 88.569,14.518 C87.621,14.518 86.87,13.821 86.837,12.525 L90.899,12.525 L90.899,12.329 C90.899,10.249 89.865,9.291 88.503,9.291 C87.295,9.291 85.9,10.195 85.9,12.286 C85.9,14.29 87.142,15.281 88.503,15.281 L88.503,15.281 Z M86.859,11.796 C86.99,10.609 87.719,10.075 88.493,10.075 C89.44,10.075 89.93,10.772 90.006,11.796 L86.859,11.796 L86.859,11.796 Z M92.239,15.161 L93.176,15.161 L93.176,11.447 C93.6,10.63 94.287,10.151 95.201,10.151 C95.234,10.151 95.441,10.151 95.474,10.162 L95.539,9.291 L95.419,9.291 C94.298,9.291 93.622,9.813 93.198,10.478 L93.176,10.478 L93.176,9.41 L92.239,9.41 L92.239,15.161 L92.239,15.161 Z M98.948,15.281 C100.353,15.281 101.616,14.257 101.616,12.286 C101.616,10.304 100.353,9.291 98.948,9.291 C97.532,9.291 96.269,10.304 96.269,12.286 C96.269,14.257 97.543,15.281 98.948,15.281 L98.948,15.281 Z M98.948,14.486 C97.783,14.486 97.216,13.505 97.216,12.286 C97.216,10.99 97.848,10.097 98.948,10.097 C100.092,10.097 100.669,11.088 100.669,12.286 C100.669,13.604 100.037,14.486 98.948,14.486 L98.948,14.486 Z M102.945,15.161 L103.882,15.161 L103.882,13.397 L105.025,12.166 L106.724,15.161 L107.726,15.161 L105.635,11.469 L107.519,9.41 L106.452,9.41 L103.882,12.286 L103.882,7.102 L102.945,7.102 L102.945,15.161 L102.945,15.161 Z M110.471,15.27 C111.407,15.27 112.126,14.791 112.627,14.301 L112.627,15.161 L113.575,15.161 L113.575,9.41 L112.627,9.41 L112.627,13.56 C112.028,14.126 111.462,14.486 110.765,14.486 C110.035,14.486 109.708,14.126 109.708,13.364 L109.708,9.41 L108.772,9.41 L108.772,13.56 C108.772,14.649 109.371,15.27 110.471,15.27 L110.471,15.27 Z" id="To-Heroku" fill="#B7A7D5" sketch:type="MSShapeGroup"></path>
                <path d="M27.638,15.161 L29.762,15.161 C32.321,15.161 33.824,13.843 33.824,11.11 C33.824,8.408 32.354,7.102 29.762,7.102 L27.638,7.102 L27.638,15.161 L27.638,15.161 Z M28.596,14.301 L28.596,7.984 L29.86,7.984 C31.82,7.984 32.866,8.942 32.866,11.11 C32.866,13.353 31.831,14.301 29.881,14.301 L28.596,14.301 L28.596,14.301 Z M37.538,15.281 C38.616,15.281 39.346,14.823 39.88,14.061 L39.335,13.582 C38.899,14.181 38.431,14.518 37.603,14.518 C36.656,14.518 35.904,13.821 35.871,12.525 L39.934,12.525 L39.934,12.329 C39.934,10.249 38.899,9.291 37.538,9.291 C36.329,9.291 34.935,10.195 34.935,12.286 C34.935,14.29 36.176,15.281 37.538,15.281 L37.538,15.281 Z M35.893,11.796 C36.024,10.609 36.754,10.075 37.527,10.075 C38.475,10.075 38.965,10.772 39.041,11.796 L35.893,11.796 L35.893,11.796 Z M41.273,17.339 L42.21,17.339 L42.21,14.42 C42.7,14.932 43.299,15.248 44.007,15.248 C45.412,15.248 46.447,14.279 46.447,12.275 C46.447,10.271 45.423,9.291 44.105,9.291 C43.245,9.291 42.646,9.726 42.21,10.206 L42.21,9.41 L41.273,9.41 L41.273,17.339 L41.273,17.339 Z M43.877,14.486 C43.267,14.486 42.711,14.181 42.21,13.615 L42.21,10.979 C42.689,10.456 43.223,10.097 43.887,10.097 C44.813,10.097 45.51,10.815 45.51,12.286 C45.51,13.811 44.879,14.486 43.877,14.486 L43.877,14.486 Z M47.863,15.161 L48.8,15.161 L48.8,7.102 L47.863,7.102 L47.863,15.161 Z M52.873,15.281 C54.278,15.281 55.541,14.257 55.541,12.286 C55.541,10.304 54.278,9.291 52.873,9.291 C51.457,9.291 50.193,10.304 50.193,12.286 C50.193,14.257 51.468,15.281 52.873,15.281 L52.873,15.281 Z M52.873,14.486 C51.707,14.486 51.141,13.505 51.141,12.286 C51.141,10.99 51.773,10.097 52.873,10.097 C54.016,10.097 54.593,11.088 54.593,12.286 C54.593,13.604 53.962,14.486 52.873,14.486 L52.873,14.486 Z M57.196,17.372 C58.318,17.372 58.765,16.827 59.157,15.815 L61.618,9.41 L60.671,9.41 L58.983,14.061 L58.961,14.061 L57.273,9.41 L56.282,9.41 L58.503,15.194 L58.285,15.76 C58.057,16.326 57.774,16.577 57.186,16.577 C56.783,16.577 56.499,16.522 56.336,16.479 L56.118,17.23 C56.369,17.307 56.685,17.372 57.196,17.372 L57.196,17.372 Z" id="Deploy" fill="#FFFFFF" sketch:type="MSShapeGroup"></path>
            </g>
        </g>
    </g>
</svg>