<?xml version="1.0" encoding="UTF-8" standalone="no"?>
<svg width="115px" height="16px" viewBox="0 0 115 16" version="1.1" xmlns="http://www.w3.org/2000/svg" xmlns:xlink="http://www.w3.org/1999/xlink" xmlns:sketch="http://www.bohemiancoding.com/sketch/ns">
    <!-- Generator: Sketch 3.3.1 (12005) - http://www.bohemiancoding.com/sketch -->
    <title>deploy_to_heroku_xxs</title>
    <desc>Created with Sketch.</desc>
    <defs></defs>
    <g id="Page-1" stroke="none" stroke-width="1" fill="none" fill-rule="evenodd" sketch:type="MSPage">
        <g id="Deploy-to-Heroku---XXS" sketch:type="MSArtboardGroup">
            <g id="Deploy-to-Heroku---XS" sketch:type="MSLayerGroup" transform="translate(0.000000, -1.000000)">
                <path d="M112.379888,1 C113.760949,1 114.879997,2.119 114.879997,3.5 L114.879997,14.5 C114.879997,15.881 113.760949,17 112.379888,17 L2.50010875,17 C1.11904868,17 0,15.881 0,14.5 L0,3.5 C0,2.119 1.11904868,1 2.50010875,1 L112.379888,1 Z" id="Background" fill="#7056BF" sketch:type="MSShapeGroup"></path>
                <g id="Icon-Big" transform="translate(3.500000, 0.800000)" fill="#FFFFFF" sketch:type="MSShapeGroup">
                    <path d="M15.5343571,3.59914286 L9.71914286,0.581642857 C9.0695,0.244071429 8.12478571,0.245285714 7.47635714,0.581642857 L1.65992857,3.59914286 C0.962928571,3.961 0.459,4.7685 0.459,5.51771429 L0.459,11.5539286 C0.459,12.3055714 0.964142857,13.1106429 1.65992857,13.4725 L4.56814286,14.9806429 C5.066,15.2368571 5.68164286,15.045 5.94028571,14.5471429 C6.19892857,14.0480714 6.00464286,13.4348571 5.50557143,13.175 L2.601,11.6680714 C2.56214286,11.6437857 2.50142857,11.5575714 2.49292857,11.5539286 L2.48928571,5.56021429 C2.50142857,5.51407143 2.56214286,5.42785714 2.59857143,5.40478571 L8.41014286,2.3885 C8.49271429,2.35328571 8.70521429,2.3545 8.78171429,2.38728571 L14.5932857,5.40357143 C14.6321429,5.42785714 14.6928571,5.51407143 14.7013571,5.51771429 L14.7037857,11.5126429 C14.6928571,11.5575714 14.6321429,11.6437857 14.5969286,11.6668571 L11.6887143,13.175 C11.1896429,13.4348571 10.9965714,14.0480714 11.254,14.5471429 C11.4349286,14.8956429 11.7919286,15.096 12.1586429,15.096 C12.3165,15.096 12.4767857,15.0595714 12.6261429,14.9806429 L15.5331429,13.4725 C16.2301429,13.1106429 16.7352857,12.3055714 16.7352857,11.5539286 L16.7352857,5.51771429 C16.7352857,4.7685 16.2313571,3.961 15.5343571,3.59914286" id="Fill-2"></path>
                    <path d="M12.3687143,10.2024286 C12.7657857,9.80535714 12.7657857,9.16178571 12.3687143,8.76471429 L9.31721429,5.71321429 C9.22371429,5.6185 9.11078571,5.54442857 8.98571429,5.49221429 C8.738,5.39021429 8.45628571,5.39021429 8.20857143,5.49221429 C8.0835,5.54442857 7.97178571,5.6185 7.87707143,5.71321429 L4.82557143,8.76471429 C4.4285,9.16178571 4.4285,9.80535714 4.82557143,10.2024286 C5.02471429,10.4015714 5.28457143,10.5011429 5.54564286,10.5011429 C5.8055,10.5011429 6.06657143,10.4015714 6.2645,10.2024286 L7.57957143,8.88735714 L7.57957143,15.5877857 C7.57957143,16.15 8.03492857,16.6041429 8.59714286,16.6041429 C9.15935714,16.6041429 9.61471429,16.15 9.61471429,15.5877857 L9.61471429,8.88735714 L10.9297857,10.2024286 C11.1277143,10.4015714 11.3887857,10.5011429 11.6486429,10.5011429 C11.9097143,10.5011429 12.1695714,10.4015714 12.3687143,10.2024286" id="Fill-3"></path>
                </g>
                <g id="Deploy-to-Heroku" transform="translate(24.000000, 4.200000)" sketch:type="MSShapeGroup">
                    <path d="M40.189,8.237 C40.484,8.237 40.843,8.205 41.006,8.172 L41.006,7.399 C40.854,7.442 40.625,7.475 40.418,7.475 C39.721,7.475 39.525,7.17 39.525,6.56 L39.525,3.184 L41.017,3.184 L41.017,2.41 L39.525,2.41 L39.525,0.363 L38.588,0.363 L38.588,2.41 L37.586,2.41 L37.586,3.184 L38.588,3.184 L38.588,6.767 C38.588,7.769 38.98,8.237 40.189,8.237 L40.189,8.237 Z M44.633,8.281 C46.038,8.281 47.301,7.257 47.301,5.286 C47.301,3.304 46.038,2.291 44.633,2.291 C43.217,2.291 41.954,3.304 41.954,5.286 C41.954,7.257 43.228,8.281 44.633,8.281 L44.633,8.281 Z M44.633,7.486 C43.468,7.486 42.901,6.505 42.901,5.286 C42.901,3.99 43.533,3.097 44.633,3.097 C45.777,3.097 46.354,4.088 46.354,5.286 C46.354,6.604 45.722,7.486 44.633,7.486 L44.633,7.486 Z M51.342,8.161 L52.3,8.161 L52.3,4.36 L56.45,4.36 L56.45,8.161 L57.408,8.161 L57.408,0.102 L56.45,0.102 L56.45,3.478 L52.3,3.478 L52.3,0.102 L51.342,0.102 L51.342,8.161 L51.342,8.161 Z M61.503,8.281 C62.582,8.281 63.311,7.823 63.845,7.061 L63.3,6.582 C62.865,7.181 62.396,7.518 61.569,7.518 C60.621,7.518 59.87,6.821 59.837,5.525 L63.899,5.525 L63.899,5.329 C63.899,3.249 62.865,2.291 61.503,2.291 C60.295,2.291 58.9,3.195 58.9,5.286 C58.9,7.29 60.142,8.281 61.503,8.281 L61.503,8.281 Z M59.859,4.796 C59.99,3.609 60.719,3.075 61.493,3.075 C62.44,3.075 62.93,3.772 63.006,4.796 L59.859,4.796 L59.859,4.796 Z M65.239,8.161 L66.176,8.161 L66.176,4.447 C66.6,3.63 67.287,3.151 68.201,3.151 C68.234,3.151 68.441,3.151 68.474,3.162 L68.539,2.291 L68.419,2.291 C67.298,2.291 66.622,2.813 66.198,3.478 L66.176,3.478 L66.176,2.41 L65.239,2.41 L65.239,8.161 L65.239,8.161 Z M71.948,8.281 C73.353,8.281 74.616,7.257 74.616,5.286 C74.616,3.304 73.353,2.291 71.948,2.291 C70.532,2.291 69.269,3.304 69.269,5.286 C69.269,7.257 70.543,8.281 71.948,8.281 L71.948,8.281 Z M71.948,7.486 C70.783,7.486 70.216,6.505 70.216,5.286 C70.216,3.99 70.848,3.097 71.948,3.097 C73.092,3.097 73.669,4.088 73.669,5.286 C73.669,6.604 73.037,7.486 71.948,7.486 L71.948,7.486 Z M75.945,8.161 L76.882,8.161 L76.882,6.397 L78.025,5.166 L79.724,8.161 L80.726,8.161 L78.635,4.469 L80.519,2.41 L79.452,2.41 L76.882,5.286 L76.882,0.102 L75.945,0.102 L75.945,8.161 L75.945,8.161 Z M83.471,8.27 C84.407,8.27 85.126,7.791 85.627,7.301 L85.627,8.161 L86.575,8.161 L86.575,2.41 L85.627,2.41 L85.627,6.56 C85.028,7.126 84.462,7.486 83.765,7.486 C83.035,7.486 82.708,7.126 82.708,6.364 L82.708,2.41 L81.772,2.41 L81.772,6.56 C81.772,7.649 82.371,8.27 83.471,8.27 L83.471,8.27 Z" id="To-Heroku" fill="#B7A7D5"></path>
                    <path d="M0.638,8.161 L2.762,8.161 C5.321,8.161 6.824,6.843 6.824,4.11 C6.824,1.408 5.354,0.102 2.762,0.102 L0.638,0.102 L0.638,8.161 L0.638,8.161 Z M1.596,7.301 L1.596,0.984 L2.86,0.984 C4.82,0.984 5.866,1.942 5.866,4.11 C5.866,6.353 4.831,7.301 2.881,7.301 L1.596,7.301 L1.596,7.301 Z M10.538,8.281 C11.616,8.281 12.346,7.823 12.88,7.061 L12.335,6.582 C11.899,7.181 11.431,7.518 10.603,7.518 C9.656,7.518 8.904,6.821 8.871,5.525 L12.934,5.525 L12.934,5.329 C12.934,3.249 11.899,2.291 10.538,2.291 C9.329,2.291 7.935,3.195 7.935,5.286 C7.935,7.29 9.176,8.281 10.538,8.281 L10.538,8.281 Z M8.893,4.796 C9.024,3.609 9.754,3.075 10.527,3.075 C11.475,3.075 11.965,3.772 12.041,4.796 L8.893,4.796 L8.893,4.796 Z M14.273,10.339 L15.21,10.339 L15.21,7.42 C15.7,7.932 16.299,8.248 17.007,8.248 C18.412,8.248 19.447,7.279 19.447,5.275 C19.447,3.271 18.423,2.291 17.105,2.291 C16.245,2.291 15.646,2.726 15.21,3.206 L15.21,2.41 L14.273,2.41 L14.273,10.339 L14.273,10.339 Z M16.877,7.486 C16.267,7.486 15.711,7.181 15.21,6.615 L15.21,3.979 C15.689,3.456 16.223,3.097 16.887,3.097 C17.813,3.097 18.51,3.815 18.51,5.286 C18.51,6.811 17.879,7.486 16.877,7.486 L16.877,7.486 Z M20.863,8.161 L21.8,8.161 L21.8,0.102 L20.863,0.102 L20.863,8.161 Z M25.873,8.281 C27.278,8.281 28.541,7.257 28.541,5.286 C28.541,3.304 27.278,2.291 25.873,2.291 C24.457,2.291 23.193,3.304 23.193,5.286 C23.193,7.257 24.468,8.281 25.873,8.281 L25.873,8.281 Z M25.873,7.486 C24.707,7.486 24.141,6.505 24.141,5.286 C24.141,3.99 24.773,3.097 25.873,3.097 C27.016,3.097 27.593,4.088 27.593,5.286 C27.593,6.604 26.962,7.486 25.873,7.486 L25.873,7.486 Z M30.196,10.372 C31.318,10.372 31.765,9.827 32.157,8.815 L34.618,2.41 L33.671,2.41 L31.983,7.061 L31.961,7.061 L30.273,2.41 L29.282,2.41 L31.503,8.194 L31.285,8.76 C31.057,9.326 30.774,9.577 30.186,9.577 C29.783,9.577 29.499,9.522 29.336,9.479 L29.118,10.23 C29.369,10.307 29.685,10.372 30.196,10.372 L30.196,10.372 Z" id="Deploy" fill="#FFFFFF"></path>
                </g>
            </g>
        </g>
    </g>
</svg>