<?xml version="1.0" encoding="UTF-8" standalone="no"?>
<svg width="116px" height="18px" viewBox="0 0 116 18" version="1.1" xmlns="http://www.w3.org/2000/svg" xmlns:xlink="http://www.w3.org/1999/xlink" xmlns:sketch="http://www.bohemiancoding.com/sketch/ns">
    <!-- Generator: Sketch 3.3.1 (12005) - http://www.bohemiancoding.com/sketch -->
    <title>deploy_to_heroku_xs</title>
    <desc>Created with Sketch.</desc>
    <defs></defs>
    <g id="Page-1" stroke="none" stroke-width="1" fill="none" fill-rule="evenodd" sketch:type="MSPage">
        <g id="Deploy-to-Heroku---XS" sketch:type="MSArtboardGroup">
            <g sketch:type="MSLayerGroup">
                <path d="M113.401281,0 C114.770524,0 115.879997,1.119 115.879997,2.5 L115.879997,15.5 C115.879997,16.881 114.770524,18 113.401281,18 L2.47871652,18 C1.10947351,18 0,16.881 0,15.5 L0,2.5 C0,1.119 1.10947351,0 2.47871652,0 L113.401281,0 Z" id="Background" fill="#7056BF" sketch:type="MSShapeGroup"></path>
                <g id="Icon" transform="translate(5.000000, 2.700000)" fill="#FFFFFF" sketch:type="MSShapeGroup">
                    <path d="M12.793,2.964 L8.004,0.479 C7.469,0.201 6.691,0.202 6.157,0.479 L1.367,2.964 C0.793,3.262 0.378,3.927 0.378,4.544 L0.378,9.515 C0.378,10.134 0.794,10.797 1.367,11.095 L3.762,12.337 C4.172,12.548 4.679,12.39 4.892,11.98 C5.105,11.569 4.945,11.064 4.534,10.85 L2.142,9.609 C2.11,9.589 2.06,9.518 2.053,9.515 L2.05,4.579 C2.06,4.541 2.11,4.47 2.14,4.451 L6.926,1.967 C6.994,1.938 7.169,1.939 7.232,1.966 L12.018,4.45 C12.05,4.47 12.1,4.541 12.107,4.544 L12.109,9.481 C12.1,9.518 12.05,9.589 12.021,9.608 L9.626,10.85 C9.215,11.064 9.056,11.569 9.268,11.98 C9.417,12.267 9.711,12.432 10.013,12.432 C10.143,12.432 10.275,12.402 10.398,12.337 L12.792,11.095 C13.366,10.797 13.782,10.134 13.782,9.515 L13.782,4.544 C13.782,3.927 13.367,3.262 12.793,2.964" id="Fill-2"></path>
                    <path d="M10.186,8.402 C10.513,8.075 10.513,7.545 10.186,7.218 L7.673,4.705 C7.596,4.627 7.503,4.566 7.4,4.523 C7.196,4.439 6.964,4.439 6.76,4.523 C6.657,4.566 6.565,4.627 6.487,4.705 L3.974,7.218 C3.647,7.545 3.647,8.075 3.974,8.402 C4.138,8.566 4.352,8.648 4.567,8.648 C4.781,8.648 4.996,8.566 5.159,8.402 L6.242,7.319 L6.242,12.837 C6.242,13.3 6.617,13.674 7.08,13.674 C7.543,13.674 7.918,13.3 7.918,12.837 L7.918,7.319 L9.001,8.402 C9.164,8.566 9.379,8.648 9.593,8.648 C9.808,8.648 10.022,8.566 10.186,8.402" id="Fill-3"></path>
                </g>
                <path d="M64.189,13.237 C64.484,13.237 64.843,13.205 65.006,13.172 L65.006,12.399 C64.854,12.442 64.625,12.475 64.418,12.475 C63.721,12.475 63.525,12.17 63.525,11.56 L63.525,8.184 L65.017,8.184 L65.017,7.41 L63.525,7.41 L63.525,5.363 L62.588,5.363 L62.588,7.41 L61.586,7.41 L61.586,8.184 L62.588,8.184 L62.588,11.767 C62.588,12.769 62.98,13.237 64.189,13.237 L64.189,13.237 Z M68.633,13.281 C70.038,13.281 71.301,12.257 71.301,10.286 C71.301,8.304 70.038,7.291 68.633,7.291 C67.217,7.291 65.954,8.304 65.954,10.286 C65.954,12.257 67.228,13.281 68.633,13.281 L68.633,13.281 Z M68.633,12.486 C67.468,12.486 66.901,11.505 66.901,10.286 C66.901,8.99 67.533,8.097 68.633,8.097 C69.777,8.097 70.354,9.088 70.354,10.286 C70.354,11.604 69.722,12.486 68.633,12.486 L68.633,12.486 Z M75.342,13.161 L76.3,13.161 L76.3,9.36 L80.45,9.36 L80.45,13.161 L81.408,13.161 L81.408,5.102 L80.45,5.102 L80.45,8.478 L76.3,8.478 L76.3,5.102 L75.342,5.102 L75.342,13.161 L75.342,13.161 Z M85.503,13.281 C86.582,13.281 87.311,12.823 87.845,12.061 L87.3,11.582 C86.865,12.181 86.396,12.518 85.569,12.518 C84.621,12.518 83.87,11.821 83.837,10.525 L87.899,10.525 L87.899,10.329 C87.899,8.249 86.865,7.291 85.503,7.291 C84.295,7.291 82.9,8.195 82.9,10.286 C82.9,12.29 84.142,13.281 85.503,13.281 L85.503,13.281 Z M83.859,9.796 C83.99,8.609 84.719,8.075 85.493,8.075 C86.44,8.075 86.93,8.772 87.006,9.796 L83.859,9.796 L83.859,9.796 Z M89.239,13.161 L90.176,13.161 L90.176,9.447 C90.6,8.63 91.287,8.151 92.201,8.151 C92.234,8.151 92.441,8.151 92.474,8.162 L92.539,7.291 L92.419,7.291 C91.298,7.291 90.622,7.813 90.198,8.478 L90.176,8.478 L90.176,7.41 L89.239,7.41 L89.239,13.161 L89.239,13.161 Z M95.948,13.281 C97.353,13.281 98.616,12.257 98.616,10.286 C98.616,8.304 97.353,7.291 95.948,7.291 C94.532,7.291 93.269,8.304 93.269,10.286 C93.269,12.257 94.543,13.281 95.948,13.281 L95.948,13.281 Z M95.948,12.486 C94.783,12.486 94.216,11.505 94.216,10.286 C94.216,8.99 94.848,8.097 95.948,8.097 C97.092,8.097 97.669,9.088 97.669,10.286 C97.669,11.604 97.037,12.486 95.948,12.486 L95.948,12.486 Z M99.945,13.161 L100.882,13.161 L100.882,11.397 L102.025,10.166 L103.724,13.161 L104.726,13.161 L102.635,9.469 L104.519,7.41 L103.452,7.41 L100.882,10.286 L100.882,5.102 L99.945,5.102 L99.945,13.161 L99.945,13.161 Z M107.471,13.27 C108.407,13.27 109.126,12.791 109.627,12.301 L109.627,13.161 L110.575,13.161 L110.575,7.41 L109.627,7.41 L109.627,11.56 C109.028,12.126 108.462,12.486 107.765,12.486 C107.035,12.486 106.708,12.126 106.708,11.364 L106.708,7.41 L105.772,7.41 L105.772,11.56 C105.772,12.649 106.371,13.27 107.471,13.27 L107.471,13.27 Z" id="To-Heroku" fill="#B7A7D5" sketch:type="MSShapeGroup"></path>
                <path d="M24.638,13.161 L26.762,13.161 C29.321,13.161 30.824,11.843 30.824,9.11 C30.824,6.408 29.354,5.102 26.762,5.102 L24.638,5.102 L24.638,13.161 L24.638,13.161 Z M25.596,12.301 L25.596,5.984 L26.86,5.984 C28.82,5.984 29.866,6.942 29.866,9.11 C29.866,11.353 28.831,12.301 26.881,12.301 L25.596,12.301 L25.596,12.301 Z M34.538,13.281 C35.616,13.281 36.346,12.823 36.88,12.061 L36.335,11.582 C35.899,12.181 35.431,12.518 34.603,12.518 C33.656,12.518 32.904,11.821 32.871,10.525 L36.934,10.525 L36.934,10.329 C36.934,8.249 35.899,7.291 34.538,7.291 C33.329,7.291 31.935,8.195 31.935,10.286 C31.935,12.29 33.176,13.281 34.538,13.281 L34.538,13.281 Z M32.893,9.796 C33.024,8.609 33.754,8.075 34.527,8.075 C35.475,8.075 35.965,8.772 36.041,9.796 L32.893,9.796 L32.893,9.796 Z M38.273,15.339 L39.21,15.339 L39.21,12.42 C39.7,12.932 40.299,13.248 41.007,13.248 C42.412,13.248 43.447,12.279 43.447,10.275 C43.447,8.271 42.423,7.291 41.105,7.291 C40.245,7.291 39.646,7.726 39.21,8.206 L39.21,7.41 L38.273,7.41 L38.273,15.339 L38.273,15.339 Z M40.877,12.486 C40.267,12.486 39.711,12.181 39.21,11.615 L39.21,8.979 C39.689,8.456 40.223,8.097 40.887,8.097 C41.813,8.097 42.51,8.815 42.51,10.286 C42.51,11.811 41.879,12.486 40.877,12.486 L40.877,12.486 Z M44.863,13.161 L45.8,13.161 L45.8,5.102 L44.863,5.102 L44.863,13.161 Z M49.873,13.281 C51.278,13.281 52.541,12.257 52.541,10.286 C52.541,8.304 51.278,7.291 49.873,7.291 C48.457,7.291 47.193,8.304 47.193,10.286 C47.193,12.257 48.468,13.281 49.873,13.281 L49.873,13.281 Z M49.873,12.486 C48.707,12.486 48.141,11.505 48.141,10.286 C48.141,8.99 48.773,8.097 49.873,8.097 C51.016,8.097 51.593,9.088 51.593,10.286 C51.593,11.604 50.962,12.486 49.873,12.486 L49.873,12.486 Z M54.196,15.372 C55.318,15.372 55.765,14.827 56.157,13.815 L58.618,7.41 L57.671,7.41 L55.983,12.061 L55.961,12.061 L54.273,7.41 L53.282,7.41 L55.503,13.194 L55.285,13.76 C55.057,14.326 54.774,14.577 54.186,14.577 C53.783,14.577 53.499,14.522 53.336,14.479 L53.118,15.23 C53.369,15.307 53.685,15.372 54.196,15.372 L54.196,15.372 Z" id="Deploy" fill="#FFFFFF" sketch:type="MSShapeGroup"></path>
            </g>
        </g>
    </g>
</svg>