<?xml version="1.0" encoding="UTF-8" standalone="no"?>
<svg width="116px" height="18px" viewBox="0 0 116 18" version="1.1" xmlns="http://www.w3.org/2000/svg" xmlns:xlink="http://www.w3.org/1999/xlink" xmlns:sketch="http://www.bohemiancoding.com/sketch/ns">
    <!-- Generator: Sketch 3.3.1 (12005) - http://www.bohemiancoding.com/sketch -->
    <title>deploy_to_heroku_xs</title>
    <desc>Created with Sketch.</desc>
    <defs></defs>
    <g id="Page-1" stroke="none" stroke-width="1" fill="none" fill-rule="evenodd" sketch:type="MSPage">
        <g id="Deploy-to-Heroku---XS" sketch:type="MSArtboardGroup">
            <g sketch:type="MSLayerGroup">
                <path d="M113.401281,0 C114.770524,0 115.879997,1.119 115.879997,2.5 L115.879997,15.5 C115.879997,16.881 114.770524,18 113.401281,18 L2.47871652,18 C1.10947351,18 0,16.881 0,15.5 L0,2.5 C0,1.119 1.10947351,0 2.47871652,0 L113.401281,0 Z" id="Background" fill="#7056BF" sketch:type="MSShapeGroup"></path>
                <g id="Icon" transform="translate(5.000000, 2.700000)" fill="#FFFFFF" sketch:type="MSShapeGroup">
                    <path d="M12.793,2.964 L8.004,0.479 C7.469,0.201 6.691,0.202 6.157,0.479 L1.367,2.964 C0.793,3.262 0.378,3.927 0.378,4.544 L0.378,9.515 C0.378,10.134 0.794,10.797 1.367,11.095 L3.762,12.337 C4.172,12.548 4.679,12.39 4.892,11.98 C5.105,11.569 4.945,11.064 4.534,10.85 L2.142,9.609 C2.11,9.589 2.06,9.518 2.053,9.515 L2.05,4.579 C2.06,4.541 2.11,4.47 2.14,4.451 L6.926,1.967 C6.994,1.938 7.169,1.939 7.232,1.966 L12.018,4.45 C12.05,4.47 12.1,4.541 12.107,4.544 L12.109,9.481 C12.1,9.518 12.05,9.589 12.021,9.608 L9.626,10.85 C9.215,11.064 9.056,11.569 9.268,11.98 C9.417,12.267 9.711,12.432 10.013,12.432 C10.143,12.432 10.275,12.402 10.398,12.337 L12.792,11.095 C13.366,10.797 13.782,10.134 13.782,9.515 L13.782,4.544 C13.782,3.927 13.367,3.262 12.793,2.964" id="Fill-2"></path>
                    <path d="M10.186,8.402 C10.513,8.075 10.513,7.545 10.186,7.218 L7.673,4.705 C7.596,4.627 7.503,4.566 7.4,4.523 C7.196,4.439 6.964,4.439 6.76,4.523 C6.657,4.566 6.565,4.627 6.487,4.705 L3.974,7.218 C3.647,7.545 3.647,8.075 3.974,8.402 C4.138,8.566 4.352,8.648 4.567,8.648 C4.781,8.648 4.996,8.566 5.159,8.402 L6.242,7.319 L6.242,12.837 C6.242,13.3 6.617,13.674 7.08,13.674 C7.543,13.674 7.918,13.3 7.918,12.837 L7.918,7.319 L9.001,8.402 C9.164,8.566 9.379,8.648 9.593,8.648 C9.808,8.648 10.022,8.566 10.186,8.402" id="Fill-3"></path>
                </g>
                <g id="Deploy-to-Heroku" transform="translate(24.000000, 5.000000)" stroke-width="0.1" sketch:type="MSShapeGroup">
                    <path d="M40.189,8.237 C40.484,8.237 40.843,8.205 41.006,8.172 L41.006,7.399 C40.854,7.442 40.625,7.475 40.418,7.475 C39.721,7.475 39.525,7.17 39.525,6.56 L39.525,3.184 L41.017,3.184 L41.017,2.41 L39.525,2.41 L39.525,0.363 L38.588,0.363 L38.588,2.41 L37.586,2.41 L37.586,3.184 L38.588,3.184 L38.588,6.767 C38.588,7.769 38.98,8.237 40.189,8.237 L40.189,8.237 Z M44.633,8.281 C46.038,8.281 47.301,7.257 47.301,5.286 C47.301,3.304 46.038,2.291 44.633,2.291 C43.217,2.291 41.954,3.304 41.954,5.286 C41.954,7.257 43.228,8.281 44.633,8.281 L44.633,8.281 Z M44.633,7.486 C43.468,7.486 42.901,6.505 42.901,5.286 C42.901,3.99 43.533,3.097 44.633,3.097 C45.777,3.097 46.354,4.088 46.354,5.286 C46.354,6.604 45.722,7.486 44.633,7.486 L44.633,7.486 Z M51.342,8.161 L52.3,8.161 L52.3,4.36 L56.45,4.36 L56.45,8.161 L57.408,8.161 L57.408,0.102 L56.45,0.102 L56.45,3.478 L52.3,3.478 L52.3,0.102 L51.342,0.102 L51.342,8.161 L51.342,8.161 Z M61.503,8.281 C62.582,8.281 63.311,7.823 63.845,7.061 L63.3,6.582 C62.865,7.181 62.396,7.518 61.569,7.518 C60.621,7.518 59.87,6.821 59.837,5.525 L63.899,5.525 L63.899,5.329 C63.899,3.249 62.865,2.291 61.503,2.291 C60.295,2.291 58.9,3.195 58.9,5.286 C58.9,7.29 60.142,8.281 61.503,8.281 L61.503,8.281 Z M59.859,4.796 C59.99,3.609 60.719,3.075 61.493,3.075 C62.44,3.075 62.93,3.772 63.006,4.796 L59.859,4.796 L59.859,4.796 Z M65.239,8.161 L66.176,8.161 L66.176,4.447 C66.6,3.63 67.287,3.151 68.201,3.151 C68.234,3.151 68.441,3.151 68.474,3.162 L68.539,2.291 L68.419,2.291 C67.298,2.291 66.622,2.813 66.198,3.478 L66.176,3.478 L66.176,2.41 L65.239,2.41 L65.239,8.161 L65.239,8.161 Z M71.948,8.281 C73.353,8.281 74.616,7.257 74.616,5.286 C74.616,3.304 73.353,2.291 71.948,2.291 C70.532,2.291 69.269,3.304 69.269,5.286 C69.269,7.257 70.543,8.281 71.948,8.281 L71.948,8.281 Z M71.948,7.486 C70.783,7.486 70.216,6.505 70.216,5.286 C70.216,3.99 70.848,3.097 71.948,3.097 C73.092,3.097 73.669,4.088 73.669,5.286 C73.669,6.604 73.037,7.486 71.948,7.486 L71.948,7.486 Z M75.945,8.161 L76.882,8.161 L76.882,6.397 L78.025,5.166 L79.724,8.161 L80.726,8.161 L78.635,4.469 L80.519,2.41 L79.452,2.41 L76.882,5.286 L76.882,0.102 L75.945,0.102 L75.945,8.161 L75.945,8.161 Z M83.471,8.27 C84.407,8.27 85.126,7.791 85.627,7.301 L85.627,8.161 L86.575,8.161 L86.575,2.41 L85.627,2.41 L85.627,6.56 C85.028,7.126 84.462,7.486 83.765,7.486 C83.035,7.486 82.708,7.126 82.708,6.364 L82.708,2.41 L81.772,2.41 L81.772,6.56 C81.772,7.649 82.371,8.27 83.471,8.27 L83.471,8.27 Z" id="To-Heroku" stroke="#B7A7D5" fill="#B7A7D5"></path>
                    <path d="M0.638,8.161 L2.762,8.161 C5.321,8.161 6.824,6.843 6.824,4.11 C6.824,1.408 5.354,0.102 2.762,0.102 L0.638,0.102 L0.638,8.161 L0.638,8.161 Z M1.596,7.301 L1.596,0.984 L2.86,0.984 C4.82,0.984 5.866,1.942 5.866,4.11 C5.866,6.353 4.831,7.301 2.881,7.301 L1.596,7.301 L1.596,7.301 Z M10.538,8.281 C11.616,8.281 12.346,7.823 12.88,7.061 L12.335,6.582 C11.899,7.181 11.431,7.518 10.603,7.518 C9.656,7.518 8.904,6.821 8.871,5.525 L12.934,5.525 L12.934,5.329 C12.934,3.249 11.899,2.291 10.538,2.291 C9.329,2.291 7.935,3.195 7.935,5.286 C7.935,7.29 9.176,8.281 10.538,8.281 L10.538,8.281 Z M8.893,4.796 C9.024,3.609 9.754,3.075 10.527,3.075 C11.475,3.075 11.965,3.772 12.041,4.796 L8.893,4.796 L8.893,4.796 Z M14.273,10.339 L15.21,10.339 L15.21,7.42 C15.7,7.932 16.299,8.248 17.007,8.248 C18.412,8.248 19.447,7.279 19.447,5.275 C19.447,3.271 18.423,2.291 17.105,2.291 C16.245,2.291 15.646,2.726 15.21,3.206 L15.21,2.41 L14.273,2.41 L14.273,10.339 L14.273,10.339 Z M16.877,7.486 C16.267,7.486 15.711,7.181 15.21,6.615 L15.21,3.979 C15.689,3.456 16.223,3.097 16.887,3.097 C17.813,3.097 18.51,3.815 18.51,5.286 C18.51,6.811 17.879,7.486 16.877,7.486 L16.877,7.486 Z M20.863,8.161 L21.8,8.161 L21.8,0.102 L20.863,0.102 L20.863,8.161 Z M25.873,8.281 C27.278,8.281 28.541,7.257 28.541,5.286 C28.541,3.304 27.278,2.291 25.873,2.291 C24.457,2.291 23.193,3.304 23.193,5.286 C23.193,7.257 24.468,8.281 25.873,8.281 L25.873,8.281 Z M25.873,7.486 C24.707,7.486 24.141,6.505 24.141,5.286 C24.141,3.99 24.773,3.097 25.873,3.097 C27.016,3.097 27.593,4.088 27.593,5.286 C27.593,6.604 26.962,7.486 25.873,7.486 L25.873,7.486 Z M30.196,10.372 C31.318,10.372 31.765,9.827 32.157,8.815 L34.618,2.41 L33.671,2.41 L31.983,7.061 L31.961,7.061 L30.273,2.41 L29.282,2.41 L31.503,8.194 L31.285,8.76 C31.057,9.326 30.774,9.577 30.186,9.577 C29.783,9.577 29.499,9.522 29.336,9.479 L29.118,10.23 C29.369,10.307 29.685,10.372 30.196,10.372 L30.196,10.372 Z" id="Deploy" stroke="#FFFFFF" fill="#FFFFFF"></path>
                </g>
            </g>
        </g>
    </g>
</svg>