<?xml version="1.0" encoding="UTF-8" standalone="no"?>
<svg width="119px" height="20px" viewBox="0 0 119 20" version="1.1" xmlns="http://www.w3.org/2000/svg" xmlns:xlink="http://www.w3.org/1999/xlink" xmlns:sketch="http://www.bohemiancoding.com/sketch/ns">
    <!-- Generator: Sketch 3.3.1 (12005) - http://www.bohemiancoding.com/sketch -->
    <title>deploy_to_heroku_xs</title>
    <desc>Created with Sketch.</desc>
    <defs></defs>
    <g id="Page-1" stroke="none" stroke-width="1" fill="none" fill-rule="evenodd" sketch:type="MSPage">
        <g id="Deploy-to-Heroku---XS" sketch:type="MSArtboardGroup">
            <g sketch:type="MSLayerGroup">
                <path d="M2.5,0 L116.375,0 C117.756,0 118.875,1.119 118.875,2.5 L118.875,15.5 C118.875,16.881 117.756,18 116.375,18 L2.5,18 C1.119,18 0,16.881 0,15.5 L0,2.5 C0,1.119 1.119,0 2.5,0" id="Background" fill="#7056BF" sketch:type="MSShapeGroup"></path>
                <g id="Icon" transform="translate(6.000000, 2.700000)" fill="#FFFFFF" sketch:type="MSShapeGroup">
                    <path d="M12.793,2.964 L8.004,0.479 C7.469,0.201 6.691,0.202 6.157,0.479 L1.367,2.964 C0.793,3.262 0.378,3.927 0.378,4.544 L0.378,9.515 C0.378,10.134 0.794,10.797 1.367,11.095 L3.762,12.337 C4.172,12.548 4.679,12.39 4.892,11.98 C5.105,11.569 4.945,11.064 4.534,10.85 L2.142,9.609 C2.11,9.589 2.06,9.518 2.053,9.515 L2.05,4.579 C2.06,4.541 2.11,4.47 2.14,4.451 L6.926,1.967 C6.994,1.938 7.169,1.939 7.232,1.966 L12.018,4.45 C12.05,4.47 12.1,4.541 12.107,4.544 L12.109,9.481 C12.1,9.518 12.05,9.589 12.021,9.608 L9.626,10.85 C9.215,11.064 9.056,11.569 9.268,11.98 C9.417,12.267 9.711,12.432 10.013,12.432 C10.143,12.432 10.275,12.402 10.398,12.337 L12.792,11.095 C13.366,10.797 13.782,10.134 13.782,9.515 L13.782,4.544 C13.782,3.927 13.367,3.262 12.793,2.964" id="Fill-2"></path>
                    <path d="M10.186,8.402 C10.513,8.075 10.513,7.545 10.186,7.218 L7.673,4.705 C7.596,4.627 7.503,4.566 7.4,4.523 C7.196,4.439 6.964,4.439 6.76,4.523 C6.657,4.566 6.565,4.627 6.487,4.705 L3.974,7.218 C3.647,7.545 3.647,8.075 3.974,8.402 C4.138,8.566 4.352,8.648 4.567,8.648 C4.781,8.648 4.996,8.566 5.159,8.402 L6.242,7.319 L6.242,12.837 C6.242,13.3 6.617,13.674 7.08,13.674 C7.543,13.674 7.918,13.3 7.918,12.837 L7.918,7.319 L9.001,8.402 C9.164,8.566 9.379,8.648 9.593,8.648 C9.808,8.648 10.022,8.566 10.186,8.402" id="Fill-3"></path>
                </g>
                <path d="M66.189,13.237 C66.484,13.237 66.843,13.205 67.006,13.172 L67.006,12.399 C66.854,12.442 66.625,12.475 66.418,12.475 C65.721,12.475 65.525,12.17 65.525,11.56 L65.525,8.184 L67.017,8.184 L67.017,7.41 L65.525,7.41 L65.525,5.363 L64.588,5.363 L64.588,7.41 L63.586,7.41 L63.586,8.184 L64.588,8.184 L64.588,11.767 C64.588,12.769 64.98,13.237 66.189,13.237 L66.189,13.237 Z M70.633,13.281 C72.038,13.281 73.301,12.257 73.301,10.286 C73.301,8.304 72.038,7.291 70.633,7.291 C69.217,7.291 67.954,8.304 67.954,10.286 C67.954,12.257 69.228,13.281 70.633,13.281 L70.633,13.281 Z M70.633,12.486 C69.468,12.486 68.901,11.505 68.901,10.286 C68.901,8.99 69.533,8.097 70.633,8.097 C71.777,8.097 72.354,9.088 72.354,10.286 C72.354,11.604 71.722,12.486 70.633,12.486 L70.633,12.486 Z M77.342,13.161 L78.3,13.161 L78.3,9.36 L82.45,9.36 L82.45,13.161 L83.408,13.161 L83.408,5.102 L82.45,5.102 L82.45,8.478 L78.3,8.478 L78.3,5.102 L77.342,5.102 L77.342,13.161 L77.342,13.161 Z M87.503,13.281 C88.582,13.281 89.311,12.823 89.845,12.061 L89.3,11.582 C88.865,12.181 88.396,12.518 87.569,12.518 C86.621,12.518 85.87,11.821 85.837,10.525 L89.899,10.525 L89.899,10.329 C89.899,8.249 88.865,7.291 87.503,7.291 C86.295,7.291 84.9,8.195 84.9,10.286 C84.9,12.29 86.142,13.281 87.503,13.281 L87.503,13.281 Z M85.859,9.796 C85.99,8.609 86.719,8.075 87.493,8.075 C88.44,8.075 88.93,8.772 89.006,9.796 L85.859,9.796 L85.859,9.796 Z M91.239,13.161 L92.176,13.161 L92.176,9.447 C92.6,8.63 93.287,8.151 94.201,8.151 C94.234,8.151 94.441,8.151 94.474,8.162 L94.539,7.291 L94.419,7.291 C93.298,7.291 92.622,7.813 92.198,8.478 L92.176,8.478 L92.176,7.41 L91.239,7.41 L91.239,13.161 L91.239,13.161 Z M97.948,13.281 C99.353,13.281 100.616,12.257 100.616,10.286 C100.616,8.304 99.353,7.291 97.948,7.291 C96.532,7.291 95.269,8.304 95.269,10.286 C95.269,12.257 96.543,13.281 97.948,13.281 L97.948,13.281 Z M97.948,12.486 C96.783,12.486 96.216,11.505 96.216,10.286 C96.216,8.99 96.848,8.097 97.948,8.097 C99.092,8.097 99.669,9.088 99.669,10.286 C99.669,11.604 99.037,12.486 97.948,12.486 L97.948,12.486 Z M101.945,13.161 L102.882,13.161 L102.882,11.397 L104.025,10.166 L105.724,13.161 L106.726,13.161 L104.635,9.469 L106.519,7.41 L105.452,7.41 L102.882,10.286 L102.882,5.102 L101.945,5.102 L101.945,13.161 L101.945,13.161 Z M109.471,13.27 C110.407,13.27 111.126,12.791 111.627,12.301 L111.627,13.161 L112.575,13.161 L112.575,7.41 L111.627,7.41 L111.627,11.56 C111.028,12.126 110.462,12.486 109.765,12.486 C109.035,12.486 108.708,12.126 108.708,11.364 L108.708,7.41 L107.772,7.41 L107.772,11.56 C107.772,12.649 108.371,13.27 109.471,13.27 L109.471,13.27 Z" id="To-Heroku" fill="#B7A7D5" sketch:type="MSShapeGroup"></path>
                <path d="M26.638,13.161 L28.762,13.161 C31.321,13.161 32.824,11.843 32.824,9.11 C32.824,6.408 31.354,5.102 28.762,5.102 L26.638,5.102 L26.638,13.161 L26.638,13.161 Z M27.596,12.301 L27.596,5.984 L28.86,5.984 C30.82,5.984 31.866,6.942 31.866,9.11 C31.866,11.353 30.831,12.301 28.881,12.301 L27.596,12.301 L27.596,12.301 Z M36.538,13.281 C37.616,13.281 38.346,12.823 38.88,12.061 L38.335,11.582 C37.899,12.181 37.431,12.518 36.603,12.518 C35.656,12.518 34.904,11.821 34.871,10.525 L38.934,10.525 L38.934,10.329 C38.934,8.249 37.899,7.291 36.538,7.291 C35.329,7.291 33.935,8.195 33.935,10.286 C33.935,12.29 35.176,13.281 36.538,13.281 L36.538,13.281 Z M34.893,9.796 C35.024,8.609 35.754,8.075 36.527,8.075 C37.475,8.075 37.965,8.772 38.041,9.796 L34.893,9.796 L34.893,9.796 Z M40.273,15.339 L41.21,15.339 L41.21,12.42 C41.7,12.932 42.299,13.248 43.007,13.248 C44.412,13.248 45.447,12.279 45.447,10.275 C45.447,8.271 44.423,7.291 43.105,7.291 C42.245,7.291 41.646,7.726 41.21,8.206 L41.21,7.41 L40.273,7.41 L40.273,15.339 L40.273,15.339 Z M42.877,12.486 C42.267,12.486 41.711,12.181 41.21,11.615 L41.21,8.979 C41.689,8.456 42.223,8.097 42.887,8.097 C43.813,8.097 44.51,8.815 44.51,10.286 C44.51,11.811 43.879,12.486 42.877,12.486 L42.877,12.486 Z M46.863,13.161 L47.8,13.161 L47.8,5.102 L46.863,5.102 L46.863,13.161 Z M51.873,13.281 C53.278,13.281 54.541,12.257 54.541,10.286 C54.541,8.304 53.278,7.291 51.873,7.291 C50.457,7.291 49.193,8.304 49.193,10.286 C49.193,12.257 50.468,13.281 51.873,13.281 L51.873,13.281 Z M51.873,12.486 C50.707,12.486 50.141,11.505 50.141,10.286 C50.141,8.99 50.773,8.097 51.873,8.097 C53.016,8.097 53.593,9.088 53.593,10.286 C53.593,11.604 52.962,12.486 51.873,12.486 L51.873,12.486 Z M56.196,15.372 C57.318,15.372 57.765,14.827 58.157,13.815 L60.618,7.41 L59.671,7.41 L57.983,12.061 L57.961,12.061 L56.273,7.41 L55.282,7.41 L57.503,13.194 L57.285,13.76 C57.057,14.326 56.774,14.577 56.186,14.577 C55.783,14.577 55.499,14.522 55.336,14.479 L55.118,15.23 C55.369,15.307 55.685,15.372 56.196,15.372 L56.196,15.372 Z" id="Deploy" fill="#FFFFFF" sketch:type="MSShapeGroup"></path>
            </g>
        </g>
    </g>
</svg>