<?xml version="1.0" encoding="UTF-8" standalone="no"?>
<svg width="115px" height="16px" viewBox="0 0 115 16" version="1.1" xmlns="http://www.w3.org/2000/svg" xmlns:xlink="http://www.w3.org/1999/xlink" xmlns:sketch="http://www.bohemiancoding.com/sketch/ns">
    <!-- Generator: Sketch 3.3.1 (12005) - http://www.bohemiancoding.com/sketch -->
    <title>deploy_to_heroku_xxs</title>
    <desc>Created with Sketch.</desc>
    <defs></defs>
    <g id="Page-1" stroke="none" stroke-width="1" fill="none" fill-rule="evenodd" sketch:type="MSPage">
        <g id="Deploy-to-Heroku---XXS" sketch:type="MSArtboardGroup">
            <g id="Deploy-to-Heroku---XS" sketch:type="MSLayerGroup" transform="translate(0.000000, -1.000000)">
                <path d="M112.379888,1 C113.760949,1 114.879997,2.119 114.879997,3.5 L114.879997,14.5 C114.879997,15.881 113.760949,17 112.379888,17 L2.50010875,17 C1.11904868,17 0,15.881 0,14.5 L0,3.5 C0,2.119 1.11904868,1 2.50010875,1 L112.379888,1 Z" id="Background" fill="#7056BF" sketch:type="MSShapeGroup"></path>
                <g id="Icon-Big" transform="translate(3.500000, 0.800000)" fill="#FFFFFF" sketch:type="MSShapeGroup">
                    <path d="M15.5343571,3.59914286 L9.71914286,0.581642857 C9.0695,0.244071429 8.12478571,0.245285714 7.47635714,0.581642857 L1.65992857,3.59914286 C0.962928571,3.961 0.459,4.7685 0.459,5.51771429 L0.459,11.5539286 C0.459,12.3055714 0.964142857,13.1106429 1.65992857,13.4725 L4.56814286,14.9806429 C5.066,15.2368571 5.68164286,15.045 5.94028571,14.5471429 C6.19892857,14.0480714 6.00464286,13.4348571 5.50557143,13.175 L2.601,11.6680714 C2.56214286,11.6437857 2.50142857,11.5575714 2.49292857,11.5539286 L2.48928571,5.56021429 C2.50142857,5.51407143 2.56214286,5.42785714 2.59857143,5.40478571 L8.41014286,2.3885 C8.49271429,2.35328571 8.70521429,2.3545 8.78171429,2.38728571 L14.5932857,5.40357143 C14.6321429,5.42785714 14.6928571,5.51407143 14.7013571,5.51771429 L14.7037857,11.5126429 C14.6928571,11.5575714 14.6321429,11.6437857 14.5969286,11.6668571 L11.6887143,13.175 C11.1896429,13.4348571 10.9965714,14.0480714 11.254,14.5471429 C11.4349286,14.8956429 11.7919286,15.096 12.1586429,15.096 C12.3165,15.096 12.4767857,15.0595714 12.6261429,14.9806429 L15.5331429,13.4725 C16.2301429,13.1106429 16.7352857,12.3055714 16.7352857,11.5539286 L16.7352857,5.51771429 C16.7352857,4.7685 16.2313571,3.961 15.5343571,3.59914286" id="Fill-2"></path>
                    <path d="M12.3687143,10.2024286 C12.7657857,9.80535714 12.7657857,9.16178571 12.3687143,8.76471429 L9.31721429,5.71321429 C9.22371429,5.6185 9.11078571,5.54442857 8.98571429,5.49221429 C8.738,5.39021429 8.45628571,5.39021429 8.20857143,5.49221429 C8.0835,5.54442857 7.97178571,5.6185 7.87707143,5.71321429 L4.82557143,8.76471429 C4.4285,9.16178571 4.4285,9.80535714 4.82557143,10.2024286 C5.02471429,10.4015714 5.28457143,10.5011429 5.54564286,10.5011429 C5.8055,10.5011429 6.06657143,10.4015714 6.2645,10.2024286 L7.57957143,8.88735714 L7.57957143,15.5877857 C7.57957143,16.15 8.03492857,16.6041429 8.59714286,16.6041429 C9.15935714,16.6041429 9.61471429,16.15 9.61471429,15.5877857 L9.61471429,8.88735714 L10.9297857,10.2024286 C11.1277143,10.4015714 11.3887857,10.5011429 11.6486429,10.5011429 C11.9097143,10.5011429 12.1695714,10.4015714 12.3687143,10.2024286" id="Fill-3"></path>
                </g>
                <path d="M64.189,12.935 C64.484,12.935 64.843,12.903 65.006,12.87 L65.006,12.097 C64.854,12.14 64.625,12.173 64.418,12.173 C63.721,12.173 63.525,11.868 63.525,11.258 L63.525,7.88199995 L65.017,7.88199995 L65.017,7.10799995 L63.525,7.10799995 L63.525,5.06099995 L62.588,5.06099995 L62.588,7.10799995 L61.586,7.10799995 L61.586,7.88199995 L62.588,7.88199995 L62.588,11.465 C62.588,12.467 62.98,12.935 64.189,12.935 L64.189,12.935 Z M68.633,12.979 C70.038,12.979 71.301,11.955 71.301,9.98399995 C71.301,8.00199995 70.038,6.98899995 68.633,6.98899995 C67.217,6.98899995 65.954,8.00199995 65.954,9.98399995 C65.954,11.955 67.228,12.979 68.633,12.979 L68.633,12.979 Z M68.633,12.184 C67.468,12.184 66.901,11.203 66.901,9.98399995 C66.901,8.68799995 67.533,7.79499995 68.633,7.79499995 C69.777,7.79499995 70.354,8.78599995 70.354,9.98399995 C70.354,11.302 69.722,12.184 68.633,12.184 L68.633,12.184 Z M75.342,12.859 L76.3,12.859 L76.3,9.05799995 L80.45,9.05799995 L80.45,12.859 L81.408,12.859 L81.408,4.79999995 L80.45,4.79999995 L80.45,8.17599995 L76.3,8.17599995 L76.3,4.79999995 L75.342,4.79999995 L75.342,12.859 L75.342,12.859 Z M85.503,12.979 C86.582,12.979 87.311,12.521 87.845,11.759 L87.3,11.28 C86.865,11.879 86.396,12.216 85.569,12.216 C84.621,12.216 83.87,11.519 83.837,10.223 L87.899,10.223 L87.899,10.027 C87.899,7.94699995 86.865,6.98899995 85.503,6.98899995 C84.295,6.98899995 82.9,7.89299995 82.9,9.98399995 C82.9,11.988 84.142,12.979 85.503,12.979 L85.503,12.979 Z M83.859,9.49399995 C83.99,8.30699995 84.719,7.77299995 85.493,7.77299995 C86.44,7.77299995 86.93,8.46999995 87.006,9.49399995 L83.859,9.49399995 L83.859,9.49399995 Z M89.239,12.859 L90.176,12.859 L90.176,9.14499995 C90.6,8.32799995 91.287,7.84899995 92.201,7.84899995 C92.234,7.84899995 92.441,7.84899995 92.474,7.85999995 L92.539,6.98899995 L92.419,6.98899995 C91.298,6.98899995 90.622,7.51099995 90.198,8.17599995 L90.176,8.17599995 L90.176,7.10799995 L89.239,7.10799995 L89.239,12.859 L89.239,12.859 Z M95.948,12.979 C97.353,12.979 98.616,11.955 98.616,9.98399995 C98.616,8.00199995 97.353,6.98899995 95.948,6.98899995 C94.532,6.98899995 93.269,8.00199995 93.269,9.98399995 C93.269,11.955 94.543,12.979 95.948,12.979 L95.948,12.979 Z M95.948,12.184 C94.783,12.184 94.216,11.203 94.216,9.98399995 C94.216,8.68799995 94.848,7.79499995 95.948,7.79499995 C97.092,7.79499995 97.669,8.78599995 97.669,9.98399995 C97.669,11.302 97.037,12.184 95.948,12.184 L95.948,12.184 Z M99.945,12.859 L100.882,12.859 L100.882,11.095 L102.025,9.86399995 L103.724,12.859 L104.726,12.859 L102.635,9.16699995 L104.519,7.10799995 L103.452,7.10799995 L100.882,9.98399995 L100.882,4.79999995 L99.945,4.79999995 L99.945,12.859 L99.945,12.859 Z M107.471,12.968 C108.407,12.968 109.126,12.489 109.627,11.999 L109.627,12.859 L110.575,12.859 L110.575,7.10799995 L109.627,7.10799995 L109.627,11.258 C109.028,11.824 108.462,12.184 107.765,12.184 C107.035,12.184 106.708,11.824 106.708,11.062 L106.708,7.10799995 L105.772,7.10799995 L105.772,11.258 C105.772,12.347 106.371,12.968 107.471,12.968 L107.471,12.968 Z" id="To-Heroku" fill="#B7A7D5" sketch:type="MSShapeGroup"></path>
                <path d="M24.638,12.859 L26.762,12.859 C29.321,12.859 30.824,11.541 30.824,8.80799995 C30.824,6.10599995 29.354,4.79999995 26.762,4.79999995 L24.638,4.79999995 L24.638,12.859 L24.638,12.859 Z M25.596,11.999 L25.596,5.68199995 L26.86,5.68199995 C28.82,5.68199995 29.866,6.63999995 29.866,8.80799995 C29.866,11.051 28.831,11.999 26.881,11.999 L25.596,11.999 L25.596,11.999 Z M34.538,12.979 C35.616,12.979 36.346,12.521 36.88,11.759 L36.335,11.28 C35.899,11.879 35.431,12.216 34.603,12.216 C33.656,12.216 32.904,11.519 32.871,10.223 L36.934,10.223 L36.934,10.027 C36.934,7.94699995 35.899,6.98899995 34.538,6.98899995 C33.329,6.98899995 31.935,7.89299995 31.935,9.98399995 C31.935,11.988 33.176,12.979 34.538,12.979 L34.538,12.979 Z M32.893,9.49399995 C33.024,8.30699995 33.754,7.77299995 34.527,7.77299995 C35.475,7.77299995 35.965,8.46999995 36.041,9.49399995 L32.893,9.49399995 L32.893,9.49399995 Z M38.273,15.037 L39.21,15.037 L39.21,12.118 C39.7,12.63 40.299,12.946 41.007,12.946 C42.412,12.946 43.447,11.977 43.447,9.97299995 C43.447,7.96899995 42.423,6.98899995 41.105,6.98899995 C40.245,6.98899995 39.646,7.42399995 39.21,7.90399995 L39.21,7.10799995 L38.273,7.10799995 L38.273,15.037 L38.273,15.037 Z M40.877,12.184 C40.267,12.184 39.711,11.879 39.21,11.313 L39.21,8.67699995 C39.689,8.15399995 40.223,7.79499995 40.887,7.79499995 C41.813,7.79499995 42.51,8.51299995 42.51,9.98399995 C42.51,11.509 41.879,12.184 40.877,12.184 L40.877,12.184 Z M44.863,12.859 L45.8,12.859 L45.8,4.79999995 L44.863,4.79999995 L44.863,12.859 Z M49.873,12.979 C51.278,12.979 52.541,11.955 52.541,9.98399995 C52.541,8.00199995 51.278,6.98899995 49.873,6.98899995 C48.457,6.98899995 47.193,8.00199995 47.193,9.98399995 C47.193,11.955 48.468,12.979 49.873,12.979 L49.873,12.979 Z M49.873,12.184 C48.707,12.184 48.141,11.203 48.141,9.98399995 C48.141,8.68799995 48.773,7.79499995 49.873,7.79499995 C51.016,7.79499995 51.593,8.78599995 51.593,9.98399995 C51.593,11.302 50.962,12.184 49.873,12.184 L49.873,12.184 Z M54.196,15.07 C55.318,15.07 55.765,14.525 56.157,13.513 L58.618,7.10799995 L57.671,7.10799995 L55.983,11.759 L55.961,11.759 L54.273,7.10799995 L53.282,7.10799995 L55.503,12.892 L55.285,13.458 C55.057,14.024 54.774,14.275 54.186,14.275 C53.783,14.275 53.499,14.22 53.336,14.177 L53.118,14.928 C53.369,15.005 53.685,15.07 54.196,15.07 L54.196,15.07 Z" id="Deploy" fill="#FFFFFF" sketch:type="MSShapeGroup"></path>
            </g>
        </g>
    </g>
</svg>